<?xml version="1.0" standalone="no"?>
<!DOCTYPE svg PUBLIC "-//W3C//DTD SVG 20010904//EN"
 "http://www.w3.org/TR/2001/REC-SVG-20010904/DTD/svg10.dtd">
<svg version="1.0" xmlns="http://www.w3.org/2000/svg"
 width="512.000000pt" height="512.000000pt" viewBox="0 0 512.000000 512.000000"
 preserveAspectRatio="xMidYMid meet">
<metadata>
Created by potrace 1.11, written by Peter Selinger 2001-2013
</metadata>
<g transform="translate(0.000000,512.000000) scale(0.100000,-0.100000)"
fill="#000000" stroke="none">
<path d="M2460 4114 c-295 -23 -576 -123 -804 -285 -186 -133 -436 -410 -436
-483 0 -37 25 -66 57 -66 12 0 65 28 118 61 220 139 510 263 730 313 171 39
269 48 481 43 176 -4 227 -8 324 -30 285 -64 538 -168 785 -323 107 -67 141
-76 168 -46 32 35 21 72 -50 167 -113 150 -288 313 -440 411 -116 74 -322 161
-468 198 -124 31 -343 50 -465 40z"/>
<path d="M1585 2551 c-58 -15 -112 -50 -163 -105 -90 -100 -135 -227 -135
-386 0 -203 87 -379 224 -455 74 -41 170 -42 244 -3 138 72 225 252 225 462 0
112 -19 195 -64 284 -75 148 -213 233 -331 203z"/>
<path d="M3425 2549 c-89 -22 -166 -93 -224 -207 -105 -208 -72 -513 72 -669
62 -68 127 -97 212 -98 59 0 78 5 124 30 137 76 224 252 224 455 0 159 -45
286 -135 386 -81 88 -180 126 -273 103z"/>
</g>
</svg>
